<svg xmlns="http://www.w3.org/2000/svg" xmlns:xlink="http://www.w3.org/1999/xlink" viewBox="0 0 1363.9 1982.4"><defs/><defs><path id="a" fill="#fff" d="M6.6 11.5a5 5 0 01-3.4-1.4 4.8 4.8 0 01-1.5-3.5 5 5 0 015-4.8 4.8 4.8 0 013 1A9.7 9.7 0 0014.2 5v3.5a9.7 9.7 0 00-3.9 1.6l-.9.6a4.8 4.8 0 01-2.8 1z"/></defs><defs><symbol id="b" viewBox="0 0 15.9 13.3"><use xlink:href="#a"/><path fill="#d22531" d="M6.7 3.5a3 3 0 011.9.7 11.5 11.5 0 003.8 2V7a11.4 11.4 0 00-3.1 1.6l-.9.6a3 3 0 01-1.8.6 3.1 3.1 0 110-6.3m0-3.5a6.6 6.6 0 100 13.3 6.5 6.5 0 003.8-1.3l.9-.6a8 8 0 014.6-1.4V3.3a8 8 0 01-5-1.8A6.5 6.5 0 006.6 0z"/></symbol><symbol id="c" viewBox="0 0 15.9 13.3"><path fill="#fff" d="M9.3 11.5a4.8 4.8 0 01-2.8-.9l-.9-.6a9.7 9.7 0 00-3.8-1.6V4.9a9.7 9.7 0 004.4-2 4.8 4.8 0 013-1.1 4.9 4.9 0 110 9.7z"/><path fill="#2060ba" d="M9.2 3.5a3.1 3.1 0 013.2 3.1 3.1 3.1 0 01-3.2 3.2 3 3 0 01-1.7-.6l-.9-.6A11.4 11.4 0 003.5 7v-.7a11.5 11.5 0 003.8-2 3 3 0 012-.8m0-3.5A6.5 6.5 0 005 1.5a8 8 0 01-5 1.8V10a8 8 0 014.6 1.5l.9.6a6.5 6.5 0 003.8 1.2 6.6 6.6 0 006.6-6.6A6.6 6.6 0 009.2 0z"/></symbol><symbol id="d" viewBox="0 0 15.9 13.3"><use xlink:href="#a"/><path fill="#41a747" d="M6.7 3.5a3 3 0 011.9.7 11.5 11.5 0 003.8 2V7a11.4 11.4 0 00-3.1 1.6l-.9.6a3 3 0 01-1.8.6 3.1 3.1 0 110-6.3m0-3.5a6.6 6.6 0 100 13.3 6.5 6.5 0 003.8-1.3l.9-.6a8 8 0 014.6-1.4V3.3a8 8 0 01-5-1.8A6.5 6.5 0 006.6 0z"/></symbol></defs><path fill="#d22531" d="M297.9 1001.9l-14.6 14.6 29.8 29.8 7.2-7.3 7.3-7.3-29.7-29.8z"/><path fill="#d22531" d="M210.3 1254.4v-20.6h-42.1v20.6h42.1z"/><path fill="#d22531" d="M210.3 1364.8v-20.6h-42.1v20.6h42.1z"/><path fill="#d22531" d="M210.3 1475.2v-20.7h-42.1v20.7h42.1z"/><path fill="#d22531" d="M210.3 1585.5v-20.6h-42.1v20.6h42.1z"/><path fill="#d22531" d="M210.3 1695.9v-20.6h-42.1v20.6h42.1z"/><path fill="#d22531" d="M210.3 1806.3v-20.6h-42.1v20.6h42.1z"/><path fill="#d22531" d="M210.3 1916.7v-20.6h-42.1v20.6h42.1z"/><path fill="#d22531" d="M227.7 1072.1l-14.6 14.6 29.8 29.7 7.3-7.2 7.2-7.3-29.7-29.8z"/><path fill="#d22531" d="M705.8 673.5l14.6-14.6-29.8-29.8-7.3 7.3-7.3 7.3 29.8 29.8z"/><path fill="#d22531" d="M792.7 586.6l14.6-14.6-29.8-29.7-7.3 7.2-7.3 7.3 29.8 29.8z"/><path fill="#d22531" d="M877 502.3l14.5-14.5-29.7-29.8-7.3 7.3-7.3 7.3 29.8 29.7z"/><path fill="#d22531" d="M961.2 418.1l14.6-14.6-29.8-29.8-7.3 7.3-7.2 7.3 29.7 29.8z"/><path fill="#d22531" d="M1070.2 249.6V229h-42.1v20.6h42.1z"/><path fill="#d22531" d="M1070.2 152.1v-20.7h-42.1v20.7h42.1z"/><path fill="#d22531" d="M1070.2 46.6V26h-42.1v20.6h42.1z"/><g fill="#41a747"><path d="M246.8 728.2l14.5 14.5 29.8-29.7-7.3-7.3-7.3-7.3-29.7 29.8z"/><path d="M711.2 1113.1l-14.6-14.6-29.7 29.8 7.3 7.3 7.2 7.3 29.8-29.8z"/><path d="M772.3 1174.2l-14.6-14.6-29.7 29.8 7.2 7.3 7.3 7.2 29.8-29.7z"/><path d="M836.8 1238.7l-14.6-14.5-29.7 29.7 7.3 7.3 7.3 7.3 29.7-29.8z"/><path d="M901.6 1303.5l-14.6-14.6-29.7 29.8 7.3 7.3 7.2 7.3 29.8-29.8z"/><path d="M965.9 1367.8l-14.5-14.5-29.8 29.7 7.3 7.3 7.3 7.3 29.7-29.8z"/><path d="M1026.2 1428.1l-14.6-14.6-29.8 29.8 7.3 7.2 7.3 7.3 29.8-29.7z"/><path d="M1075.5 1582.2v-20.6h-42.1v20.6h42.1z"/><path d="M1075.5 1666.1v-20.6h-42.1v20.6h42.1z"/><path d="M1075.5 1750v-20.7h-42.1v20.7h42.1z"/><path d="M1075.5 1833.8v-20.6h-42.1v20.6h42.1z"/><path d="M1075.5 1917.7v-20.6h-42.1v20.6h42.1z"/><path d="M210 562.2v-20.6h-42.1v20.6H210z"/><path d="M210 427.2v-20.6h-42.1v20.6H210z"/></g><g fill="#2060ba"><path d="M601.1 620.7v20.6h42.1v-20.6h-42.1z"/><path d="M601.1 506.6v20.6h42.1v-20.6h-42.1z"/><path d="M657.4 1409.8v-20.6h-42.1v20.6h42.1z"/><path d="M657.4 1496.6V1476h-42.1v20.6h42.1z"/><path d="M657.4 1574.5v-20.6h-42.1v20.6h42.1z"/><path d="M657.4 1649.4v-20.6h-42.1v20.6h42.1z"/><path d="M657.4 1730.4v-20.6h-42.1v20.6h42.1z"/><path d="M657.4 1841v-20.6h-42.1v20.6h42.1z"/><path d="M657.4 1917v-20.5h-42.1v20.5h42.1z"/><path d="M601.1 1157.8v20.6h42.1v-20.6h-42.1z"/><path d="M657.4 1293.1v-20.6h-42.1v20.6h42.1z"/><path d="M657.4 424.3v-20.6h-42.1v20.6h42.1z"/><path d="M657.4 329.8v-20.6h-42.1v20.6h42.1z"/><path d="M657.4 235.3v-20.6h-42.1v20.6h42.1z"/><path d="M657.4 140.8v-20.6h-42.1v20.6h42.1z"/><path d="M657.4 46.3V25.7h-42.1v20.6h42.1z"/></g><path fill="none" stroke="#d22531" stroke-miterlimit="10" stroke-width="28" d="M181.7 1906.4v-719.5a70 70 0 0120.5-49.5L1021.5 318a70 70 0 0020.5-49.5V27.8"/><path fill="none" stroke="#2060ba" stroke-miterlimit="10" stroke-width="28" d="M629.3 27.8v1878.6"/><path fill="none" stroke="#41a747" stroke-miterlimit="10" stroke-width="28" d="M181.7 408v186a70 70 0 0020.5 49.5l824.5 824.6a70 70 0 0120.5 49.5v399.7"/><use width="15.9" height="13.3" transform="matrix(4.45 0 0 -4.45 517.5 821)" xlink:href="#b"/><use width="15.9" height="13.3" transform="matrix(4.45 0 0 -4.45 588.3 821)" xlink:href="#c"/><use width="15.9" height="13.3" transform="matrix(4.45 0 0 -4.45 590.4 1018.9)" xlink:href="#c"/><path fill="#fff" d="M549.2 967.6a22.2 22.2 0 00-15.2 6.1 21.3 21.3 0 00-6.6 15.6 21.8 21.8 0 0021.8 21.8 21.3 21.3 0 0013.6-5 43.4 43.4 0 0119.7-9.2v-15.4a43 43 0 01-17.1-7.2l-3.8-2.7a21.4 21.4 0 00-12.4-4z"/><path fill="#41a747" d="M549.3 1003.3a14 14 0 11-.1-27.9 13.5 13.5 0 018 2.6l3.8 2.7a51 51 0 0013.8 7v3.2a51 51 0 00-16.8 9.1l-.1.1a13.4 13.4 0 01-8.6 3.2m0 15.6a29 29 0 0018.6-6.8 35.4 35.4 0 0122.5-8.1v-29.5a35.4 35.4 0 01-20.5-6.5l-3.8-2.7a29 29 0 00-16.9-5.4 29.5 29.5 0 00-29.6 29.5 29.5 29.5 0 0029.6 29.5z"/><use width="15.9" height="13.3" transform="matrix(0 -4.45 4.45 0 373.4 961.9)" xlink:href="#b"/><use width="15.9" height="13.3" transform="matrix(0 4.45 4.45 0 373.4 820.4)" xlink:href="#d"/><g fill="#09303b" font-family="Tahoma, Tahoma" font-size="40"><text transform="translate(373.5 750.6)">Хрещатик</text><text transform="translate(18.5 765.2)">Лук’янівська</text><text transform="translate(222.4 563.9)">Дорогижичі</text><text transform="translate(222.4 427.3)">Сирець</text><text transform="translate(423 1048.4)">Палац <tspan x="-9.3" y="41">спорту</tspan></text><text transform="translate(109.8 861.4)">Золоті ворота</text><text transform="translate(150.4 935.5)">Театральна</text><text transform="translate(57.2 1014.2)">Університет</text><text transform="translate(12.6 1087.2)">Вокзальна</text><text transform="translate(223.2 1254.2)">Політехнічний<tspan x="0" y="37">інститут</tspan></text><text transform="translate(223.2 1363.2)">Шулявська</text><text transform="translate(223.2 1476.3)">Берестейська</text><text transform="translate(223.2 1586)">Нивки</text><text transform="translate(223.2 1697.6)">Святошин</text><text transform="translate(223.2 1807.4)">Житомирська</text><text transform="translate(223.2 1917.8)">Академмістечко</text><text transform="translate(669.3 977.2)">Площа <tspan x="0" y="43">Льва Толстого</tspan></text><text transform="translate(363.7 1178.8)">Олімпійська</text><text transform="translate(667.7 1293.5)">Палац <tspan x="-15" y="42">«Україна»</tspan></text><text transform="translate(671.1 1410.8)">Либідська</text><text transform="translate(671.1 1497.6)">Деміївська</text><text transform="translate(671.1 1575.5)">Голосіївська</text><text transform="translate(671.1 1650.4)">Васильківська</text><text transform="translate(671.1 1731.4)">Виставковий<tspan x="0" y="39">центр</tspan></text><text transform="translate(671.1 1842)">Іподром</text><text transform="translate(671.1 1918)">Теремки</text><text transform="translate(709.1 1095.3)">Кловська</text><text transform="translate(770.2 1156.4)">Печерська</text><text transform="translate(834.7 1220.9)">Дружби народів</text><text transform="translate(899.5 1285.7)">Видубичі</text><text transform="translate(961 1350.7)">Славутич</text><text transform="translate(1025.5 1417.4)">Осокорки</text><text transform="translate(1087.2 1581.1)">Позняки</text><text transform="translate(1087.2 1664.7)">Харківська</text><text transform="translate(1087.2 1751.7)">Вирлиця</text><text transform="translate(1087.2 1835.4)">Бориспільська</text><text transform="translate(1087.2 1918.3)">Червоний <tspan x="0" y="43">хутір</tspan></text><text transform="translate(666.1 780.8)">Майдан<tspan x="0" y="41">Незалежності</tspan></text><text transform="translate(725.9 689)">Арсенальна</text><text transform="translate(812.8 602.1)">Дніпро</text><text transform="translate(897 517.9)">Гідропарк</text><text transform="translate(981.3 433.6)">Лівобережна</text><text transform="translate(1084.8 252.5)">Дарниця</text><text transform="translate(1084.8 155)">Чернігівська</text><text transform="translate(1084.8 49.5)">Лісова</text><text transform="translate(425.6 641.2)">Поштова <tspan x="38.7" y="41">Площа</tspan></text><text transform="translate(355.8 487.9)">Контрактова<tspan x="113.3" y="41">площа</tspan></text><text transform="translate(667.7 408)">Тараса<tspan x="0" y="41">Шевченка</tspan></text><text transform="translate(669 330.1)">Почайна</text><text transform="translate(669 235.1)">Оболонь</text><text transform="translate(669 141.7)">Мінська</text><text transform="translate(669 46)">Героїв Дніпра</text></g></svg>