<svg xmlns="http://www.w3.org/2000/svg" font-family="Tahoma" font-size="60" viewBox="0 0 600 600"><defs/><g fill="none" stroke-miterlimit="10" stroke-width="34.6"><path stroke="#d2bcc8" d="M414 269v374"/><path stroke="#d2bcc8" d="M414-84v282"/><path stroke="#bdccd4" d="M349 337h331"/><path stroke="#bdccd4" d="M-86 172L36 293a150 150 0 00106 44h134"/></g><path fill="#d2bcc8" d="M425 218c10 10 8 24 0 32a22 22 0 01-12 6l-8 2a84 84 0 00-24 8l-4-4a84 84 0 009-30 22 22 0 017-14m0 0c8-8 22-11 32 0m-51-18a48 48 0 00-13 29 58 58 0 01-17 36l34 34a58 58 0 0132-16l7-2a48 48 0 0026-13c18-18 20-48 0-69a49 49 0 00-69 0z"/><path fill="#bdccd4" d="M297 313a22 22 0 0114-6 84 84 0 0030-9l4 4a84 84 0 00-8 24l-2 8a22 22 0 01-6 12c-8 8-22 10-32 0s-8-25 0-33m-18-18a49 49 0 1069 69 48 48 0 0013-26l1-8a58 58 0 0116-31l-34-34a58 58 0 01-36 16 48 48 0 00-29 14z"/><text fill="#d2bcc8" transform="translate(197 165)">Station<tspan x="0" y="55">name</tspan></text><text fill="#bdccd4" transform="translate(180 440)">Station<tspan x="0" y="55">name</tspan></text></svg>