<svg xmlns="http://www.w3.org/2000/svg" font-family="Tahoma, Tahoma" viewBox="0 0 1083 1815"><defs/><path fill="none" stroke="#6573a5" stroke-miterlimit="10" stroke-width="18" d="M527 45v1630"/><path fill="none" stroke="#6573a5" stroke-miterlimit="10" stroke-width="18" d="M983 276v628a70 70 0 01-20 49l-359 359a70 70 0 01-50 21H286"/><path fill="none" stroke="#6573a5" stroke-miterlimit="10" stroke-width="18" d="M286 1762v-735h268a70 70 0 0150 20l134 135"/><path fill="none" stroke="#6573a5" stroke-miterlimit="10" stroke-width="18" d="M314 1027H123a40 40 0 01-40-40V276"/><path fill="none" stroke="#6573a5" stroke-miterlimit="10" stroke-width="18" d="M83 813h564a70 70 0 0150 21l193 193"/><path fill="none" stroke="#6573a5" stroke-miterlimit="10" stroke-width="18" d="M753 813V538"/><path fill="none" stroke="#6573a5" stroke-miterlimit="10" stroke-width="18" d="M286 807V538"/><circle cx="527.1" cy="45.1" r="17.8" fill="#fff" stroke="#6573a5" stroke-miterlimit="10" stroke-width="11"/><circle cx="527.1" cy="195.9" r="17.8" fill="#fff" stroke="#6573a5" stroke-miterlimit="10" stroke-width="11"/><circle cx="527.1" cy="346.8" r="17.8" fill="#fff" stroke="#6573a5" stroke-miterlimit="10" stroke-width="11"/><circle cx="527.1" cy="491.2" r="17.8" fill="#fff" stroke="#6573a5" stroke-miterlimit="10" stroke-width="11"/><circle cx="527.1" cy="648.5" r="17.8" fill="#fff" stroke="#6573a5" stroke-miterlimit="10" stroke-width="11"/><circle cx="286.2" cy="648.5" r="17.8" fill="#fff" stroke="#6573a5" stroke-miterlimit="10" stroke-width="11"/><circle cx="82.5" cy="648.5" r="17.8" fill="#fff" stroke="#6573a5" stroke-miterlimit="10" stroke-width="11"/><circle cx="82.5" cy="931" r="17.8" fill="#fff" stroke="#6573a5" stroke-miterlimit="10" stroke-width="11"/><circle cx="753.2" cy="677.3" r="17.8" fill="#fff" stroke="#6573a5" stroke-miterlimit="10" stroke-width="11"/><circle cx="983.4" cy="806.7" r="17.8" fill="#fff" stroke="#6573a5" stroke-miterlimit="10" stroke-width="11"/><circle cx="825.1" cy="1091.7" r="17.8" fill="#fff" stroke="#6573a5" stroke-miterlimit="10" stroke-width="11"/><circle cx="650.6" cy="1266.2" r="17.8" fill="#fff" stroke="#6573a5" stroke-miterlimit="10" stroke-width="11"/><circle cx="527" cy="1165.2" r="17.8" fill="#fff" stroke="#6573a5" stroke-miterlimit="10" stroke-width="11"/><circle cx="527" cy="1438" r="17.8" fill="#fff" stroke="#6573a5" stroke-miterlimit="10" stroke-width="11"/><circle cx="527" cy="1674.9" r="17.8" fill="#fff" stroke="#6573a5" stroke-miterlimit="10" stroke-width="11"/><circle cx="527" cy="1560.9" r="17.8" fill="#fff" stroke="#6573a5" stroke-miterlimit="10" stroke-width="11"/><circle cx="286.2" cy="1165.2" r="17.8" fill="#fff" stroke="#6573a5" stroke-miterlimit="10" stroke-width="11"/><circle cx="286.2" cy="1469.2" r="17.8" fill="#fff" stroke="#6573a5" stroke-miterlimit="10" stroke-width="11"/><circle cx="286.2" cy="1623.3" r="17.8" fill="#fff" stroke="#6573a5" stroke-miterlimit="10" stroke-width="11"/><circle cx="286.2" cy="1762.2" r="17.8" fill="#fff" stroke="#6573a5" stroke-miterlimit="10" stroke-width="11"/><circle cx="983.4" cy="676.7" r="17.8" fill="#fff" stroke="#6573a5" stroke-miterlimit="10" stroke-width="11"/><circle cx="983.4" cy="519.8" r="17.8" fill="#fff" stroke="#6573a5" stroke-miterlimit="10" stroke-width="11"/><circle cx="983.4" cy="397.2" r="17.8" fill="#fff" stroke="#6573a5" stroke-miterlimit="10" stroke-width="11"/><circle cx="983.4" cy="275.8" r="17.8" fill="#fff" stroke="#6573a5" stroke-miterlimit="10" stroke-width="11"/><circle cx="753.2" cy="537.6" r="17.8" fill="#fff" stroke="#6573a5" stroke-miterlimit="10" stroke-width="11"/><circle cx="169.7" cy="1026.7" r="17.8" fill="#fff" stroke="#6573a5" stroke-miterlimit="10" stroke-width="11"/><circle cx="82.5" cy="537.6" r="17.8" fill="#fff" stroke="#6573a5" stroke-miterlimit="10" stroke-width="11"/><circle cx="82.5" cy="397.2" r="17.8" fill="#fff" stroke="#6573a5" stroke-miterlimit="10" stroke-width="11"/><circle cx="82.5" cy="275.8" r="17.8" fill="#fff" stroke="#6573a5" stroke-miterlimit="10" stroke-width="11"/><circle cx="286.2" cy="537.6" r="17.8" fill="#fff" stroke="#6573a5" stroke-miterlimit="10" stroke-width="11"/><circle cx="501.7" cy="812.5" r="17.8" fill="#fff" stroke="#6573a5" stroke-miterlimit="10" stroke-width="11"/><circle cx="527" cy="785.6" r="17.8" fill="#fff" stroke="#6573a5" stroke-miterlimit="10" stroke-width="11"/><path fill="#fff" stroke="#fff" stroke-miterlimit="10" stroke-width="8" d="M502 813l27-27"/><circle cx="724.7" cy="859.1" r="17.8" fill="#fff" stroke="#6573a5" stroke-miterlimit="10" stroke-width="11"/><circle cx="750" cy="832.2" r="17.8" fill="#fff" stroke="#6573a5" stroke-miterlimit="10" stroke-width="11"/><path fill="#fff" stroke="#fff" stroke-miterlimit="10" stroke-width="8" d="M725 859l27-27"/><circle cx="869.9" cy="1008.2" r="17.8" fill="#fff" stroke="#6573a5" stroke-miterlimit="10" stroke-width="11" transform="rotate(-45 870 1008)"/><circle cx="906.8" cy="1007" r="17.8" fill="#fff" stroke="#6573a5" stroke-miterlimit="10" stroke-width="11" transform="rotate(-45 907 1007)"/><path fill="#fff" stroke="#fff" stroke-miterlimit="10" stroke-width="8" d="M870 1008h38"/><circle cx="718.4" cy="1159.6" r="17.8" fill="#fff" stroke="#6573a5" stroke-miterlimit="10" stroke-width="11" transform="rotate(-45 718 1160)"/><circle cx="755.3" cy="1158.5" r="17.8" fill="#fff" stroke="#6573a5" stroke-miterlimit="10" stroke-width="11" transform="rotate(-45 755 1159)"/><path fill="#fff" stroke="#fff" stroke-miterlimit="10" stroke-width="8" d="M718 1160h39"/><circle cx="258.8" cy="812.5" r="17.8" fill="#fff" stroke="#6573a5" stroke-miterlimit="10" stroke-width="11"/><circle cx="284.1" cy="785.6" r="17.8" fill="#fff" stroke="#6573a5" stroke-miterlimit="10" stroke-width="11"/><path fill="#fff" stroke="#fff" stroke-miterlimit="10" stroke-width="8" d="M259 813l27-27"/><circle cx="109.4" cy="811.7" r="17.8" fill="#fff" stroke="#6573a5" stroke-miterlimit="10" stroke-width="11"/><circle cx="82.5" cy="786.4" r="17.8" fill="#fff" stroke="#6573a5" stroke-miterlimit="10" stroke-width="11"/><path fill="#fff" stroke="#fff" stroke-miterlimit="10" stroke-width="8" d="M109 812l-26-27"/><circle cx="501.7" cy="1026.6" r="17.8" fill="#fff" stroke="#6573a5" stroke-miterlimit="10" stroke-width="11"/><circle cx="527" cy="999.7" r="17.8" fill="#fff" stroke="#6573a5" stroke-miterlimit="10" stroke-width="11"/><path fill="#fff" stroke="#fff" stroke-miterlimit="10" stroke-width="8" d="M502 1027l27-27"/><circle cx="501.7" cy="1330.7" r="17.8" fill="#fff" stroke="#6573a5" stroke-miterlimit="10" stroke-width="11"/><circle cx="527" cy="1303.8" r="17.8" fill="#fff" stroke="#6573a5" stroke-miterlimit="10" stroke-width="11"/><path fill="#fff" stroke="#fff" stroke-miterlimit="10" stroke-width="8" d="M502 1331l27-27"/><circle cx="289.4" cy="1055.8" r="17.8" fill="#fff" stroke="#6573a5" stroke-miterlimit="10" stroke-width="11"/><circle cx="314.7" cy="1028.9" r="17.8" fill="#fff" stroke="#6573a5" stroke-miterlimit="10" stroke-width="11"/><path fill="#fff" stroke="#fff" stroke-miterlimit="10" stroke-width="8" d="M289 1056l27-27"/><circle cx="315.5" cy="1329.9" r="17.8" fill="#fff" stroke="#6573a5" stroke-miterlimit="10" stroke-width="11"/><circle cx="288.6" cy="1304.5" r="17.8" fill="#fff" stroke="#6573a5" stroke-miterlimit="10" stroke-width="11"/><path fill="#fff" stroke="#fff" stroke-miterlimit="10" stroke-width="8" d="M316 1330l-27-27"/><text transform="translate(118 293)">0</text><text transform="translate(118 414)">1</text><text transform="translate(118 548)">2</text><text transform="translate(320 552)">8</text><g fill="#6573a5" font-size="35"><text transform="translate(95 346)">4</text><text transform="translate(95 481)">4</text><text transform="translate(95 606)">2</text><text transform="translate(95 726)">2</text><text transform="translate(163 856)">4</text><text transform="translate(302 726)">2</text><text transform="translate(48 880)">2</text><text transform="translate(48 999)">3</text><text transform="translate(229 1012)">2</text><text transform="translate(253 1119)">3</text><text transform="translate(253 1244)">2</text><text transform="translate(253 1403)">1</text><text transform="translate(395 1318)">1</text><text transform="translate(545 1389)">2</text><text transform="translate(491 1244)">3</text><text transform="translate(491 1110)">2</text><text transform="translate(491 925)">2</text><text transform="translate(545 1510)">1</text><text transform="translate(545 1629)">2</text><text transform="translate(607 1356)">1</text><text transform="translate(712 1252)">2</text><text transform="translate(755 1110)">2</text><text transform="translate(881 1081)">3</text><text transform="translate(938 934)">2</text><text transform="translate(764 967)">1</text><text transform="translate(938 755)">2</text><text transform="translate(938 613)">3</text><text transform="translate(938 466)">4</text><text transform="translate(938 346)">4</text><text transform="translate(713 617)">3</text><text transform="translate(713 766)">2</text><text transform="translate(603 854)">2</text><text transform="translate(385 854)">2</text><text transform="translate(543 726)">2</text><text transform="translate(543 580)">2</text><text transform="translate(543 428)">2</text><text transform="translate(543 285)">4</text><text transform="translate(543 129)">4</text><text transform="translate(253 1555)">2</text><text transform="translate(253 1710)">3</text><text transform="translate(406 1012)">2</text><text transform="translate(647 1071)">5</text><text transform="translate(302 606)">3</text></g><g font-size="45"><text transform="translate(560 63)">20</text><text transform="translate(560 215)">21</text><text transform="translate(560 355)">22</text><text transform="translate(560 500)">23</text><text transform="translate(787 552)">35</text><text transform="translate(787 693)">36</text><text transform="translate(787 839)">37</text><text transform="translate(677 929)">38</text><text transform="translate(642 1186)">39</text><text transform="translate(787 1206)">40</text><text transform="translate(677 1318)">41</text><text transform="translate(1018 293)">42</text><text transform="translate(1018 411)">43</text><text transform="translate(1018 533)">44</text><text transform="translate(1018 693)">45</text><text transform="translate(1018 821)">46</text><text transform="translate(936 1035)">48</text><text transform="translate(787 1035)">47</text><text transform="translate(852 1133)">49</text><text transform="translate(560 660)">24</text><text transform="translate(560 780)">25</text><text transform="translate(444 869)">26</text><text transform="translate(558 998)">27</text><text transform="translate(437 1083)">28</text><text transform="translate(558 1180)">29</text><text transform="translate(545 1283)">30</text><text transform="translate(447 1389)">31</text><text transform="translate(560 1450)">32</text><text transform="translate(560 1569)">33</text><text transform="translate(560 1689)">34</text><text transform="translate(320 668)">9</text><text transform="translate(316 789)">10</text><text transform="translate(232 876)">11</text><text transform="translate(320 999)">12</text><text transform="translate(307 1108)">13</text><text transform="translate(307 1206)">14</text><text transform="translate(307 1283)">15</text><text transform="translate(327 1387)">16</text><text transform="translate(315 1486)">17</text><text transform="translate(315 1641)">18</text><text transform="translate(315 1779)">19</text><text transform="translate(118 660)">3</text><text transform="translate(105 764)">4</text><text transform="translate(105 876)">5</text><text transform="translate(111 947)">6</text><text transform="translate(156 1090)">7</text></g></svg>